<svg width="397" height="397" viewBox="0 0 397 397" fill="none" xmlns="http://www.w3.org/2000/svg">
<circle cx="198.5" cy="198.5" r="198.5" fill="#EBF9F3"/>
<path d="M213.151 180.156C212.274 177.691 210.657 175.557 208.521 174.046C206.385 172.536 203.834 171.722 201.218 171.717H191.422C188.628 171.702 185.927 172.724 183.842 174.585C181.758 176.447 180.437 179.015 180.136 181.793C179.835 184.572 180.575 187.363 182.213 189.627C183.851 191.892 186.27 193.468 189.003 194.052L203.919 197.307C206.969 197.974 209.665 199.746 211.488 202.28C213.311 204.814 214.134 207.933 213.797 211.037C213.461 214.141 211.99 217.011 209.666 219.096C207.342 221.181 204.329 222.334 201.207 222.333H192.778C187.268 222.333 182.581 218.818 180.846 213.904M196.998 171.717V159.057M196.998 234.992V222.344M144.234 269.011V241.891H171.354" stroke="#00CC88" stroke-width="10" stroke-linecap="round" stroke-linejoin="round"/>
<path d="M267.791 185.548C270.671 200.9 268.372 216.773 261.254 230.677C254.137 244.581 242.604 255.729 228.466 262.369C214.329 269.01 198.386 270.768 183.141 267.368C167.895 263.968 154.21 255.602 144.234 243.584M129.199 211.496C126.319 196.144 128.618 180.27 135.736 166.366C142.853 152.462 154.386 141.315 168.524 134.674C182.662 128.034 198.604 126.275 213.85 129.675C229.095 133.075 242.78 141.441 252.756 153.46" stroke="#00CC88" stroke-width="10" stroke-linecap="round" stroke-linejoin="round"/>
<path d="M252.756 128.032V155.152H225.636" stroke="#00CC88" stroke-width="10" stroke-linecap="round" stroke-linejoin="round"/>
</svg>
